<svg width="213" height="22" viewBox="0 0 213 22" fill="none" xmlns="http://www.w3.org/2000/svg">
<path d="M51.4266 0.0727539H50.0308V21.7985H51.4266V0.0727539Z" fill="black"/>
<path d="M80.8922 16.4613L81.8764 16.9239C80.061 19.9744 76.8576 21.9741 73.0073 21.9741C66.973 21.9741 62.5698 17.0455 62.5698 11.0112C62.5698 4.97692 66.973 0.0522461 73.0073 0.0522461C76.8576 0.0522461 80.0571 2.05191 81.8764 5.10238L80.8922 5.56505C79.2925 2.88707 76.4577 1.1305 73.0112 1.1305C67.5925 1.1305 63.7422 5.56503 63.7108 11.0151C63.7422 16.4652 67.5886 20.8997 73.0112 20.8997C76.4577 20.8919 79.2925 19.1392 80.8922 16.4613Z" fill="black"/>
<path d="M106.323 11.0372C106.323 17.0715 101.889 22.0001 95.8545 22.0001C89.8515 22.0001 85.417 17.0754 85.417 11.0372C85.417 4.97153 89.8515 0.046875 95.8545 0.046875C101.889 0.046875 106.323 4.97153 106.323 11.0372ZM105.155 11.0372C105.155 5.55575 101.305 1.1212 95.8545 1.1212C90.4358 1.1212 86.5854 5.55575 86.5854 11.0372C86.5854 16.4873 90.4358 20.9532 95.8545 20.9532C101.305 20.9532 105.155 16.4873 105.155 11.0372Z" fill="black"/>
<path d="M132.06 0.230957V21.7842H130.982V2.26591L121.87 16.1224H121.16L112.016 2.26591V21.7842H110.938V0.230957H111.922L121.497 14.7932L131.072 0.230957H132.06Z" fill="black"/>
<path d="M152.814 6.822C152.814 10.7625 149.826 13.4131 145.791 13.4131H139.11V21.7881H138.063V0.234868H145.791C149.732 0.230947 152.814 2.85011 152.814 6.822ZM151.673 6.822C151.673 3.37551 149.148 1.30919 145.791 1.30919H139.11V12.3309H145.791C149.057 12.3309 151.673 10.2685 151.673 6.822Z" fill="black"/>
<path d="M167.713 14.9501H157.675L155.029 21.7842H153.888L162.2 0.230957H163.184L171.497 21.7842H170.356L167.713 14.9501ZM167.313 13.9032L162.694 1.95617L158.075 13.9032H167.313Z" fill="black"/>
<path d="M192.066 0.230957V21.7842H191.082L176.735 2.14046V21.7842H175.657V0.230957H176.641L190.988 19.9375V0.230957H192.066Z" fill="black"/>
<path d="M204.44 14.609V21.7842H203.393V14.6403L195.297 0.230957H196.528L203.919 13.3778L211.278 0.230957H212.509L204.44 14.609Z" fill="black"/>
<path d="M12.3234 21.7336C15.9777 14.5113 19.632 7.28505 23.2863 0.0627241C22.9256 0.0588032 22.5609 0.05097 22.2002 0.047049L11.7588 20.6162L1.2939 0C0.862596 0.0196046 0.4313 0.0391948 0 0.0587993C3.73271 7.28112 7.46149 14.5074 11.1942 21.7297C11.5667 21.7336 11.947 21.7336 12.3234 21.7336Z" fill="black"/>
<path d="M26.5054 0.0981445C22.8511 7.32047 19.1968 14.5467 15.5425 21.769C15.9032 21.773 16.2679 21.7808 16.6286 21.7847L27.0739 1.21167L37.5388 21.8278C37.9701 21.8082 38.4014 21.7886 38.8327 21.769C35.1 14.5467 31.3712 7.32047 27.6385 0.0981445C27.2621 0.0981445 26.8818 0.0981445 26.5054 0.0981445Z" fill="black"/>
</svg>
